<svg xmlns="http://www.w3.org/2000/svg" viewBox="0 0 64 96" width="64" height="96">
<!-- art:default generated by tools/art-default -->
<ellipse cx="32" cy="93" rx="15" ry="3" fill="#000000" opacity="0.2"/><g transform="rotate(-18 32 62)"><rect x="28.5" y="62" width="7" height="24" fill="#00FFFF" rx="2" stroke="#2b2118" stroke-width="1.4" stroke-linejoin="round" stroke-linecap="round"/><ellipse cx="34" cy="88" rx="6" ry="3" fill="#2b2b2b" stroke="#2b2118" stroke-width="1.4" stroke-linejoin="round" stroke-linecap="round"/></g><g transform="rotate(18 32 62)"><rect x="28.5" y="62" width="7" height="24" fill="#00FFFF" rx="2" stroke="#2b2118" stroke-width="1.4" stroke-linejoin="round" stroke-linecap="round"/><ellipse cx="34" cy="88" rx="6" ry="3" fill="#2b2b2b" stroke="#2b2118" stroke-width="1.4" stroke-linejoin="round" stroke-linecap="round"/></g><rect x="25" y="36" width="14" height="30" fill="#FF00FF" rx="7" stroke="#2b2118" stroke-width="1.4" stroke-linejoin="round" stroke-linecap="round"/><g transform="rotate(-22 33 39)"><rect x="29.5" y="38" width="7" height="22" fill="#FF00FF" rx="3" stroke="#2b2118" stroke-width="1.4" stroke-linejoin="round" stroke-linecap="round"/><circle cx="33" cy="61" r="3.2" fill="#ffdbac" stroke="#2b2118" stroke-width="1.4" stroke-linejoin="round" stroke-linecap="round"/></g><rect x="30" y="31" width="6" height="6" fill="#ffdbac" stroke="#2b2118" stroke-width="1.4" stroke-linejoin="round" stroke-linecap="round"/><circle cx="33" cy="22" r="12" fill="#ffdbac" stroke="#2b2118" stroke-width="1.4" stroke-linejoin="round" stroke-linecap="round"/><circle cx="44" cy="24" r="2" fill="#ffdbac" stroke="#2b2118" stroke-width="1.4" stroke-linejoin="round" stroke-linecap="round"/><path d="M21 21 L23 9 L28 14 L33 6 L38 14 L43 9 L45 21 Q33 16 21 21 Z" fill="#e8c35a" stroke="#2b2118" stroke-width="1.4" stroke-linejoin="round" stroke-linecap="round"/><circle cx="39" cy="22" r="1.6" fill="#2b2118"/><path d="M37 28 Q40 30.5 42 28" fill="none" stroke="#2b2118" stroke-width="1.4" stroke-linejoin="round" stroke-linecap="round"/><path d="M21 20 A12 11 0 0 1 45 20 Z" fill="#2f6fb5" stroke="#2b2118" stroke-width="1.4" stroke-linejoin="round" stroke-linecap="round"/><rect x="33" y="18" width="14" height="3" fill="#265991" rx="1.5" stroke="#2b2118" stroke-width="1.4" stroke-linejoin="round" stroke-linecap="round"/>
</svg>