<svg xmlns="http://www.w3.org/2000/svg" viewBox="0 0 240 240" width="240" height="240">
<!-- art:default generated by tools/art-default -->
<ellipse cx="126" cy="230" rx="89" ry="9" fill="#000000" opacity="0.2"/><polygon points="174,26 196,14 196,214 174,226" fill="#70819d" stroke="#2b2118" stroke-width="4" stroke-linejoin="round" stroke-linecap="round"/><rect x="44" y="26" width="130" height="200" fill="#8fa5c9" rx="4" stroke="#2b2118" stroke-width="4" stroke-linejoin="round" stroke-linecap="round"/><rect x="54" y="12" width="110" height="14" fill="#5d6f91" stroke="#2b2118" stroke-width="4" stroke-linejoin="round" stroke-linecap="round"/><rect x="54" y="42" width="50" height="20" fill="#bfe6f5" rx="3" stroke="#2b2118" stroke-width="3" stroke-linejoin="round" stroke-linecap="round"/><path d="M58 58 L98 47" fill="none" stroke="#ffffff" stroke-width="3" stroke-linecap="round" opacity="0.8"/><rect x="114" y="42" width="50" height="20" fill="#bfe6f5" rx="3" stroke="#2b2118" stroke-width="3" stroke-linejoin="round" stroke-linecap="round"/><path d="M118 58 L158 47" fill="none" stroke="#ffffff" stroke-width="3" stroke-linecap="round" opacity="0.8"/><rect x="54" y="72" width="50" height="20" fill="#bfe6f5" rx="3" stroke="#2b2118" stroke-width="3" stroke-linejoin="round" stroke-linecap="round"/><path d="M58 88 L98 77" fill="none" stroke="#ffffff" stroke-width="3" stroke-linecap="round" opacity="0.8"/><rect x="114" y="72" width="50" height="20" fill="#bfe6f5" rx="3" stroke="#2b2118" stroke-width="3" stroke-linejoin="round" stroke-linecap="round"/><path d="M118 88 L158 77" fill="none" stroke="#ffffff" stroke-width="3" stroke-linecap="round" opacity="0.8"/><rect x="54" y="102" width="50" height="20" fill="#bfe6f5" rx="3" stroke="#2b2118" stroke-width="3" stroke-linejoin="round" stroke-linecap="round"/><path d="M58 118 L98 107" fill="none" stroke="#ffffff" stroke-width="3" stroke-linecap="round" opacity="0.8"/><rect x="114" y="102" width="50" height="20" fill="#bfe6f5" rx="3" stroke="#2b2118" stroke-width="3" stroke-linejoin="round" stroke-linecap="round"/><path d="M118 118 L158 107" fill="none" stroke="#ffffff" stroke-width="3" stroke-linecap="round" opacity="0.8"/><rect x="54" y="132" width="50" height="20" fill="#bfe6f5" rx="3" stroke="#2b2118" stroke-width="3" stroke-linejoin="round" stroke-linecap="round"/><path d="M58 148 L98 137" fill="none" stroke="#ffffff" stroke-width="3" stroke-linecap="round" opacity="0.8"/><rect x="114" y="132" width="50" height="20" fill="#bfe6f5" rx="3" stroke="#2b2118" stroke-width="3" stroke-linejoin="round" stroke-linecap="round"/><path d="M118 148 L158 137" fill="none" stroke="#ffffff" stroke-width="3" stroke-linecap="round" opacity="0.8"/><rect x="92" y="174" width="34" height="52" fill="#3b4a66" rx="3" stroke="#2b2118" stroke-width="4" stroke-linejoin="round" stroke-linecap="round"/><circle cx="118" cy="200" r="2.5" fill="#f5d76e"/><rect x="54" y="180" width="28" height="32" fill="#bfe6f5" rx="3" stroke="#2b2118" stroke-width="3" stroke-linejoin="round" stroke-linecap="round"/><rect x="136" y="180" width="28" height="32" fill="#bfe6f5" rx="3" stroke="#2b2118" stroke-width="3" stroke-linejoin="round" stroke-linecap="round"/><rect x="83" y="130" width="52" height="40" fill="#fffdf6" rx="8" stroke="#2b2118" stroke-width="3.5" stroke-linejoin="round" stroke-linecap="round"/><g transform="translate(91 134) scale(0.8)"><path d="M20 4 L34 9 V19 C34 28 27 34 20 37 C13 34 6 28 6 19 V9 Z" fill="#4a7fb5" stroke="#2b2118" stroke-width="2.5" stroke-linejoin="round" stroke-linecap="round"/><path d="M13 20 L18 25 L28 14" fill="none" stroke="#ffffff" stroke-width="3" stroke-linejoin="round" stroke-linecap="round"/></g><rect x="30" y="186" width="12" height="40" fill="#6f7b87" stroke="#2b2118" stroke-width="3" stroke-linejoin="round" stroke-linecap="round"/><rect x="176" y="186" width="12" height="40" fill="#6f7b87" stroke="#2b2118" stroke-width="3" stroke-linejoin="round" stroke-linecap="round"/>
</svg>