<svg xmlns="http://www.w3.org/2000/svg" viewBox="0 0 240 240" width="240" height="240">
<!-- art:default generated by tools/art-default -->
<ellipse cx="126" cy="230" rx="119" ry="9" fill="#000000" opacity="0.2"/><polygon points="204,106 226,94 226,214 204,226" fill="#bd973d" stroke="#2b2118" stroke-width="4" stroke-linejoin="round" stroke-linecap="round"/><rect x="14" y="106" width="190" height="120" fill="#f2c14e" rx="4" stroke="#2b2118" stroke-width="4" stroke-linejoin="round" stroke-linecap="round"/><rect x="6" y="94" width="217" height="16" fill="#e0625a" rx="4" stroke="#2b2118" stroke-width="4" stroke-linejoin="round" stroke-linecap="round"/><rect x="92" y="174" width="34" height="52" fill="#b3261e" rx="3" stroke="#2b2118" stroke-width="4" stroke-linejoin="round" stroke-linecap="round"/><circle cx="118" cy="200" r="2.5" fill="#f5d76e"/><rect x="24" y="180" width="58" height="32" fill="#bfe6f5" rx="3" stroke="#2b2118" stroke-width="3" stroke-linejoin="round" stroke-linecap="round"/><rect x="136" y="180" width="58" height="32" fill="#bfe6f5" rx="3" stroke="#2b2118" stroke-width="3" stroke-linejoin="round" stroke-linecap="round"/><rect x="9" y="160" width="25" height="14" fill="#e0625a"/><rect x="34" y="160" width="25" height="14" fill="#fff4d6"/><rect x="59" y="160" width="25" height="14" fill="#e0625a"/><rect x="84" y="160" width="25" height="14" fill="#fff4d6"/><rect x="109" y="160" width="25" height="14" fill="#e0625a"/><rect x="134" y="160" width="25" height="14" fill="#fff4d6"/><rect x="159" y="160" width="25" height="14" fill="#e0625a"/><rect x="184" y="160" width="25" height="14" fill="#fff4d6"/><path d="M9 174 q12.5 9 25 0 q12.5 9 25 0 q12.5 9 25 0 q12.5 9 25 0 q12.5 9 25 0 q12.5 9 25 0 q12.5 9 25 0 q12.5 9 25 0 V160 H9 Z" fill="none" stroke="#2b2118" stroke-width="3" stroke-linejoin="round" stroke-linecap="round"/><ellipse cx="21.5" cy="175" rx="12.5" ry="5" fill="#e0625a"/><ellipse cx="46.5" cy="175" rx="12.5" ry="5" fill="#fff4d6"/><ellipse cx="71.5" cy="175" rx="12.5" ry="5" fill="#e0625a"/><ellipse cx="96.5" cy="175" rx="12.5" ry="5" fill="#fff4d6"/><ellipse cx="121.5" cy="175" rx="12.5" ry="5" fill="#e0625a"/><ellipse cx="146.5" cy="175" rx="12.5" ry="5" fill="#fff4d6"/><ellipse cx="171.5" cy="175" rx="12.5" ry="5" fill="#e0625a"/><ellipse cx="196.5" cy="175" rx="12.5" ry="5" fill="#fff4d6"/><rect x="83" y="122" width="52" height="40" fill="#fffdf6" rx="8" stroke="#2b2118" stroke-width="3.5" stroke-linejoin="round" stroke-linecap="round"/><g transform="translate(91 126) scale(0.8)"><path d="M6 6 H22 L35 19 L21 33 L6 18 Z" fill="#e0625a" stroke="#2b2118" stroke-width="2.5" stroke-linejoin="round" stroke-linecap="round"/><circle cx="13" cy="13" r="3" fill="#fff8ec" stroke="#2b2118" stroke-width="2.5" stroke-linejoin="round" stroke-linecap="round"/></g><g transform="translate(22 116) rotate(-8)"><polygon points="0,0 30,0 42,14 30,28 0,28" fill="#f5d76e" stroke="#2b2118" stroke-width="3" stroke-linejoin="round" stroke-linecap="round"/><circle cx="8" cy="14" r="3" fill="#fff8ec" stroke="#2b2118" stroke-width="2" stroke-linejoin="round" stroke-linecap="round"/></g>
</svg>