<svg xmlns="http://www.w3.org/2000/svg" viewBox="0 0 240 240" width="240" height="240">
<!-- art:default generated by tools/art-default -->
<ellipse cx="126" cy="230" rx="119" ry="9" fill="#000000" opacity="0.2"/><polygon points="204,106 226,94 226,214 204,226" fill="#897f78" stroke="#2b2118" stroke-width="4" stroke-linejoin="round" stroke-linecap="round"/><rect x="14" y="106" width="190" height="120" fill="#b0a39a" rx="4" stroke="#2b2118" stroke-width="4" stroke-linejoin="round" stroke-linecap="round"/><path d="M14 106 l47.5 -30 v30 l47.5 -30 v30 l47.5 -30 v30 l47.5 -30 v30 Z" fill="#8a7c72" stroke="#2b2118" stroke-width="4" stroke-linejoin="round" stroke-linecap="round"/><rect x="24" y="122" width="35" height="30" fill="#bfe6f5" rx="3" stroke="#2b2118" stroke-width="3" stroke-linejoin="round" stroke-linecap="round"/><path d="M28 148 L53 127" fill="none" stroke="#ffffff" stroke-width="3" stroke-linecap="round" opacity="0.8"/><rect x="69" y="122" width="35" height="30" fill="#bfe6f5" rx="3" stroke="#2b2118" stroke-width="3" stroke-linejoin="round" stroke-linecap="round"/><path d="M73 148 L98 127" fill="none" stroke="#ffffff" stroke-width="3" stroke-linecap="round" opacity="0.8"/><rect x="114" y="122" width="35" height="30" fill="#bfe6f5" rx="3" stroke="#2b2118" stroke-width="3" stroke-linejoin="round" stroke-linecap="round"/><path d="M118 148 L143 127" fill="none" stroke="#ffffff" stroke-width="3" stroke-linecap="round" opacity="0.8"/><rect x="159" y="122" width="35" height="30" fill="#bfe6f5" rx="3" stroke="#2b2118" stroke-width="3" stroke-linejoin="round" stroke-linecap="round"/><path d="M163 148 L188 127" fill="none" stroke="#ffffff" stroke-width="3" stroke-linecap="round" opacity="0.8"/><rect x="92" y="174" width="34" height="52" fill="#5c4d3f" rx="3" stroke="#2b2118" stroke-width="4" stroke-linejoin="round" stroke-linecap="round"/><circle cx="118" cy="200" r="2.5" fill="#f5d76e"/><rect x="24" y="180" width="58" height="32" fill="#bfe6f5" rx="3" stroke="#2b2118" stroke-width="3" stroke-linejoin="round" stroke-linecap="round"/><rect x="136" y="180" width="58" height="32" fill="#bfe6f5" rx="3" stroke="#2b2118" stroke-width="3" stroke-linejoin="round" stroke-linecap="round"/><rect x="83" y="130" width="52" height="40" fill="#fffdf6" rx="8" stroke="#2b2118" stroke-width="3.5" stroke-linejoin="round" stroke-linecap="round"/><g transform="translate(91 134) scale(0.8)"><circle cx="20" cy="20" r="11" fill="#9aa5b1" stroke="#2b2118" stroke-width="2.5" stroke-linejoin="round" stroke-linecap="round"/><circle cx="20" cy="20" r="4" fill="#ffffff" stroke="#2b2118" stroke-width="2.5" stroke-linejoin="round" stroke-linecap="round"/><rect x="18" y="3" width="4" height="6" fill="#9aa5b1" transform="rotate(0 20 20)" stroke="#2b2118" stroke-width="2.5" stroke-linejoin="round" stroke-linecap="round"/><rect x="18" y="3" width="4" height="6" fill="#9aa5b1" transform="rotate(45 20 20)" stroke="#2b2118" stroke-width="2.5" stroke-linejoin="round" stroke-linecap="round"/><rect x="18" y="3" width="4" height="6" fill="#9aa5b1" transform="rotate(90 20 20)" stroke="#2b2118" stroke-width="2.5" stroke-linejoin="round" stroke-linecap="round"/><rect x="18" y="3" width="4" height="6" fill="#9aa5b1" transform="rotate(135 20 20)" stroke="#2b2118" stroke-width="2.5" stroke-linejoin="round" stroke-linecap="round"/><rect x="18" y="3" width="4" height="6" fill="#9aa5b1" transform="rotate(180 20 20)" stroke="#2b2118" stroke-width="2.5" stroke-linejoin="round" stroke-linecap="round"/><rect x="18" y="3" width="4" height="6" fill="#9aa5b1" transform="rotate(225 20 20)" stroke="#2b2118" stroke-width="2.5" stroke-linejoin="round" stroke-linecap="round"/><rect x="18" y="3" width="4" height="6" fill="#9aa5b1" transform="rotate(270 20 20)" stroke="#2b2118" stroke-width="2.5" stroke-linejoin="round" stroke-linecap="round"/><rect x="18" y="3" width="4" height="6" fill="#9aa5b1" transform="rotate(315 20 20)" stroke="#2b2118" stroke-width="2.5" stroke-linejoin="round" stroke-linecap="round"/></g><rect x="160" y="48" width="20" height="50" fill="#9a5b44" stroke="#2b2118" stroke-width="4" stroke-linejoin="round" stroke-linecap="round"/><circle cx="174" cy="36" r="12" fill="#e6e6e6" stroke="#2b2118" stroke-width="3" stroke-linejoin="round" stroke-linecap="round"/><circle cx="192" cy="22" r="9" fill="#f2f2f2" stroke="#2b2118" stroke-width="3" stroke-linejoin="round" stroke-linecap="round"/>
</svg>