<svg xmlns="http://www.w3.org/2000/svg" viewBox="0 0 1600 1000" width="1600" height="1000">
<!-- art:default generated by tools/art-default -->
<rect x="0" y="0" width="1600" height="700" fill="#b0a39a"/><rect x="0" y="660" width="1600" height="40" fill="#968b83" stroke="#2b2118" stroke-width="4" stroke-linejoin="round" stroke-linecap="round"/><polygon points="0,700 1600,700 1600,1000 0,1000" fill="#6f6760"/><path d="M400 700 L175 1000" fill="none" stroke="#5e5852" stroke-width="4"/><path d="M800 700 L800 1000" fill="none" stroke="#5e5852" stroke-width="4"/><path d="M1200 700 L1425 1000" fill="none" stroke="#5e5852" stroke-width="4"/><path d="M0 700 H1600" fill="none" stroke="#2b2118" stroke-width="5" stroke-linejoin="round" stroke-linecap="round"/><rect x="1330" y="90" width="170" height="120" fill="#fffdf6" rx="6" stroke="#2b2118" stroke-width="4" stroke-linejoin="round" stroke-linecap="round"/><rect x="1345" y="105" width="140" height="90" fill="#c8bfb8" rx="3"/><path d="M1350 190 l40 -40 l30 30 l20 -15 l35 25" fill="none" stroke="#2b2118" stroke-width="3" stroke-linejoin="round" stroke-linecap="round"/><path d="M60 200 H900 M60 230 H900" fill="none" stroke="#8a7c72" stroke-width="18"/><circle cx="200" cy="330" r="60" fill="#9aa5b1" stroke="#2b2118" stroke-width="5" stroke-linejoin="round" stroke-linecap="round"/><circle cx="200" cy="330" r="20" fill="#6f7b87" stroke="#2b2118" stroke-width="3" stroke-linejoin="round" stroke-linecap="round"/><circle cx="480" cy="330" r="60" fill="#9aa5b1" stroke="#2b2118" stroke-width="5" stroke-linejoin="round" stroke-linecap="round"/><circle cx="480" cy="330" r="20" fill="#6f7b87" stroke="#2b2118" stroke-width="3" stroke-linejoin="round" stroke-linecap="round"/><circle cx="760" cy="330" r="60" fill="#9aa5b1" stroke="#2b2118" stroke-width="5" stroke-linejoin="round" stroke-linecap="round"/><circle cx="760" cy="330" r="20" fill="#6f7b87" stroke="#2b2118" stroke-width="3" stroke-linejoin="round" stroke-linecap="round"/><rect x="60" y="520" width="860" height="60" fill="#3b3b3b" rx="30" stroke="#2b2118" stroke-width="4" stroke-linejoin="round" stroke-linecap="round"/><rect x="120" y="470" width="70" height="52" fill="#c9a36b" rx="4" stroke="#2b2118" stroke-width="3" stroke-linejoin="round" stroke-linecap="round"/><rect x="280" y="470" width="70" height="52" fill="#c9a36b" rx="4" stroke="#2b2118" stroke-width="3" stroke-linejoin="round" stroke-linecap="round"/><rect x="440" y="470" width="70" height="52" fill="#c9a36b" rx="4" stroke="#2b2118" stroke-width="3" stroke-linejoin="round" stroke-linecap="round"/><rect x="600" y="470" width="70" height="52" fill="#c9a36b" rx="4" stroke="#2b2118" stroke-width="3" stroke-linejoin="round" stroke-linecap="round"/><rect x="760" y="470" width="70" height="52" fill="#c9a36b" rx="4" stroke="#2b2118" stroke-width="3" stroke-linejoin="round" stroke-linecap="round"/><circle cx="140" cy="550" r="18" fill="#6f7b87" stroke="#2b2118" stroke-width="3" stroke-linejoin="round" stroke-linecap="round"/><circle cx="320" cy="550" r="18" fill="#6f7b87" stroke="#2b2118" stroke-width="3" stroke-linejoin="round" stroke-linecap="round"/><circle cx="500" cy="550" r="18" fill="#6f7b87" stroke="#2b2118" stroke-width="3" stroke-linejoin="round" stroke-linecap="round"/><circle cx="680" cy="550" r="18" fill="#6f7b87" stroke="#2b2118" stroke-width="3" stroke-linejoin="round" stroke-linecap="round"/><circle cx="860" cy="550" r="18" fill="#6f7b87" stroke="#2b2118" stroke-width="3" stroke-linejoin="round" stroke-linecap="round"/><rect x="780" y="60" width="120" height="96" fill="#fffdf6" rx="14" stroke="#2b2118" stroke-width="5" stroke-linejoin="round" stroke-linecap="round"/><g transform="translate(800 68) scale(2)"><circle cx="20" cy="20" r="11" fill="#9aa5b1" stroke="#2b2118" stroke-width="2.5" stroke-linejoin="round" stroke-linecap="round"/><circle cx="20" cy="20" r="4" fill="#ffffff" stroke="#2b2118" stroke-width="2.5" stroke-linejoin="round" stroke-linecap="round"/><rect x="18" y="3" width="4" height="6" fill="#9aa5b1" transform="rotate(0 20 20)" stroke="#2b2118" stroke-width="2.5" stroke-linejoin="round" stroke-linecap="round"/><rect x="18" y="3" width="4" height="6" fill="#9aa5b1" transform="rotate(45 20 20)" stroke="#2b2118" stroke-width="2.5" stroke-linejoin="round" stroke-linecap="round"/><rect x="18" y="3" width="4" height="6" fill="#9aa5b1" transform="rotate(90 20 20)" stroke="#2b2118" stroke-width="2.5" stroke-linejoin="round" stroke-linecap="round"/><rect x="18" y="3" width="4" height="6" fill="#9aa5b1" transform="rotate(135 20 20)" stroke="#2b2118" stroke-width="2.5" stroke-linejoin="round" stroke-linecap="round"/><rect x="18" y="3" width="4" height="6" fill="#9aa5b1" transform="rotate(180 20 20)" stroke="#2b2118" stroke-width="2.5" stroke-linejoin="round" stroke-linecap="round"/><rect x="18" y="3" width="4" height="6" fill="#9aa5b1" transform="rotate(225 20 20)" stroke="#2b2118" stroke-width="2.5" stroke-linejoin="round" stroke-linecap="round"/><rect x="18" y="3" width="4" height="6" fill="#9aa5b1" transform="rotate(270 20 20)" stroke="#2b2118" stroke-width="2.5" stroke-linejoin="round" stroke-linecap="round"/><rect x="18" y="3" width="4" height="6" fill="#9aa5b1" transform="rotate(315 20 20)" stroke="#2b2118" stroke-width="2.5" stroke-linejoin="round" stroke-linecap="round"/></g>
</svg>