<svg xmlns="http://www.w3.org/2000/svg" viewBox="0 0 1600 1000" width="1600" height="1000">
<!-- art:default generated by tools/art-default -->
<rect x="0" y="0" width="1600" height="700" fill="#fde2ec"/><rect x="0" y="660" width="1600" height="40" fill="#d7c0c9" stroke="#2b2118" stroke-width="4" stroke-linejoin="round" stroke-linecap="round"/><polygon points="0,700 1600,700 1600,1000 0,1000" fill="#e8dcc2"/><path d="M400 700 L175 1000" fill="none" stroke="#c5bba5" stroke-width="4"/><path d="M800 700 L800 1000" fill="none" stroke="#c5bba5" stroke-width="4"/><path d="M1200 700 L1425 1000" fill="none" stroke="#c5bba5" stroke-width="4"/><path d="M0 700 H1600" fill="none" stroke="#2b2118" stroke-width="5" stroke-linejoin="round" stroke-linecap="round"/><rect x="1330" y="90" width="170" height="120" fill="#fffdf6" rx="6" stroke="#2b2118" stroke-width="4" stroke-linejoin="round" stroke-linecap="round"/><rect x="1345" y="105" width="140" height="90" fill="#feebf2" rx="3"/><path d="M1350 190 l40 -40 l30 30 l20 -15 l35 25" fill="none" stroke="#2b2118" stroke-width="3" stroke-linejoin="round" stroke-linecap="round"/><path d="M100 220 H860" fill="none" stroke="#9aa5b1" stroke-width="6" stroke-linejoin="round" stroke-linecap="round"/><path d="M140 220 v20" fill="none" stroke="#2b2118" stroke-width="3" stroke-linejoin="round" stroke-linecap="round"/><g transform="translate(90 238) scale(2.5)"><path d="M13 6 L20 10 L27 6 L36 12 L32 19 L28 17 L28 35 L12 35 L12 17 L8 19 L4 12 Z" fill="#e0625a" stroke="#2b2118" stroke-width="1.2" stroke-linejoin="round" stroke-linecap="round"/></g><path d="M250 220 v20" fill="none" stroke="#2b2118" stroke-width="3" stroke-linejoin="round" stroke-linecap="round"/><g transform="translate(200 238) scale(2.5)"><path d="M13 6 L20 10 L27 6 L36 12 L32 19 L28 17 L28 35 L12 35 L12 17 L8 19 L4 12 Z" fill="#f2c14e" stroke="#2b2118" stroke-width="1.2" stroke-linejoin="round" stroke-linecap="round"/></g><path d="M360 220 v20" fill="none" stroke="#2b2118" stroke-width="3" stroke-linejoin="round" stroke-linecap="round"/><g transform="translate(310 238) scale(2.5)"><path d="M13 6 L20 10 L27 6 L36 12 L32 19 L28 17 L28 35 L12 35 L12 17 L8 19 L4 12 Z" fill="#6fb7e0" stroke="#2b2118" stroke-width="1.2" stroke-linejoin="round" stroke-linecap="round"/></g><path d="M470 220 v20" fill="none" stroke="#2b2118" stroke-width="3" stroke-linejoin="round" stroke-linecap="round"/><g transform="translate(420 238) scale(2.5)"><path d="M13 6 L20 10 L27 6 L36 12 L32 19 L28 17 L28 35 L12 35 L12 17 L8 19 L4 12 Z" fill="#9ccf8a" stroke="#2b2118" stroke-width="1.2" stroke-linejoin="round" stroke-linecap="round"/></g><path d="M580 220 v20" fill="none" stroke="#2b2118" stroke-width="3" stroke-linejoin="round" stroke-linecap="round"/><g transform="translate(530 238) scale(2.5)"><path d="M13 6 L20 10 L27 6 L36 12 L32 19 L28 17 L28 35 L12 35 L12 17 L8 19 L4 12 Z" fill="#b58fc9" stroke="#2b2118" stroke-width="1.2" stroke-linejoin="round" stroke-linecap="round"/></g><path d="M690 220 v20" fill="none" stroke="#2b2118" stroke-width="3" stroke-linejoin="round" stroke-linecap="round"/><g transform="translate(640 238) scale(2.5)"><path d="M13 6 L20 10 L27 6 L36 12 L32 19 L28 17 L28 35 L12 35 L12 17 L8 19 L4 12 Z" fill="#f28c5a" stroke="#2b2118" stroke-width="1.2" stroke-linejoin="round" stroke-linecap="round"/></g><path d="M780 220 v20" fill="none" stroke="#2b2118" stroke-width="3" stroke-linejoin="round" stroke-linecap="round"/><g transform="translate(730 238) scale(2.5)"><path d="M13 6 L20 10 L27 6 L36 12 L32 19 L28 17 L28 35 L12 35 L12 17 L8 19 L4 12 Z" fill="#e0625a" stroke="#2b2118" stroke-width="1.2" stroke-linejoin="round" stroke-linecap="round"/></g><rect x="120" y="420" width="150" height="260" fill="#fffdf6" rx="70" stroke="#2b2118" stroke-width="4" stroke-linejoin="round" stroke-linecap="round"/><rect x="135" y="435" width="120" height="230" fill="#bfe6f5" rx="60"/><rect x="700" y="440" width="120" height="96" fill="#fffdf6" rx="14" stroke="#2b2118" stroke-width="5" stroke-linejoin="round" stroke-linecap="round"/><g transform="translate(720 448) scale(2)"><path d="M13 6 L20 10 L27 6 L36 12 L32 19 L28 17 L28 35 L12 35 L12 17 L8 19 L4 12 Z" fill="#4a90d9" stroke="#2b2118" stroke-width="2.5" stroke-linejoin="round" stroke-linecap="round"/></g>
</svg>