<svg xmlns="http://www.w3.org/2000/svg" viewBox="0 0 1600 1000" width="1600" height="1000">
<!-- art:default generated by tools/art-default -->
<rect x="0" y="0" width="1600" height="700" fill="#eef6f6"/><rect x="0" y="660" width="1600" height="40" fill="#cad1d1" stroke="#2b2118" stroke-width="4" stroke-linejoin="round" stroke-linecap="round"/><polygon points="0,700 1600,700 1600,1000 0,1000" fill="#c9d6de"/><path d="M400 700 L175 1000" fill="none" stroke="#abb6bd" stroke-width="4"/><path d="M800 700 L800 1000" fill="none" stroke="#abb6bd" stroke-width="4"/><path d="M1200 700 L1425 1000" fill="none" stroke="#abb6bd" stroke-width="4"/><path d="M0 700 H1600" fill="none" stroke="#2b2118" stroke-width="5" stroke-linejoin="round" stroke-linecap="round"/><rect x="1330" y="90" width="170" height="120" fill="#fffdf6" rx="6" stroke="#2b2118" stroke-width="4" stroke-linejoin="round" stroke-linecap="round"/><rect x="1345" y="105" width="140" height="90" fill="#f3f9f9" rx="3"/><path d="M1350 190 l40 -40 l30 30 l20 -15 l35 25" fill="none" stroke="#2b2118" stroke-width="3" stroke-linejoin="round" stroke-linecap="round"/><rect x="160" y="120" width="120" height="96" fill="#fffdf6" rx="14" stroke="#2b2118" stroke-width="5" stroke-linejoin="round" stroke-linecap="round"/><g transform="translate(180 128) scale(2)"><rect x="15" y="5" width="10" height="30" fill="#e04848" rx="2" stroke="#2b2118" stroke-width="2.5" stroke-linejoin="round" stroke-linecap="round"/><rect x="5" y="15" width="30" height="10" fill="#e04848" rx="2" stroke="#2b2118" stroke-width="2.5" stroke-linejoin="round" stroke-linecap="round"/><rect x="16" y="16" width="8" height="8" fill="#e04848"/></g><rect x="420" y="480" width="420" height="60" fill="#ffffff" rx="20" stroke="#2b2118" stroke-width="4" stroke-linejoin="round" stroke-linecap="round"/><rect x="420" y="540" width="420" height="30" fill="#8fd3c4" stroke="#2b2118" stroke-width="4" stroke-linejoin="round" stroke-linecap="round"/><rect x="440" y="570" width="20" height="90" fill="#9aa5b1" stroke="#2b2118" stroke-width="3" stroke-linejoin="round" stroke-linecap="round"/><rect x="800" y="570" width="20" height="90" fill="#9aa5b1" stroke="#2b2118" stroke-width="3" stroke-linejoin="round" stroke-linecap="round"/><rect x="430" y="450" width="110" height="40" fill="#ffffff" rx="16" stroke="#2b2118" stroke-width="3" stroke-linejoin="round" stroke-linecap="round"/><path d="M380 120 V460" fill="none" stroke="#2b2118" stroke-width="4" stroke-linejoin="round" stroke-linecap="round"/><path d="M380 130 q30 40 0 80 t0 80 t0 80 t0 80" fill="#bfe6f5" stroke="#2b2118" stroke-width="3" stroke-linejoin="round" stroke-linecap="round" opacity="0.9"/><rect x="80" y="440" width="160" height="200" fill="#f4f1ec" rx="6" stroke="#2b2118" stroke-width="4" stroke-linejoin="round" stroke-linecap="round"/><rect x="96" y="460" width="128" height="70" fill="#bfe6f5" stroke="#2b2118" stroke-width="3" stroke-linejoin="round" stroke-linecap="round"/>
</svg>