<svg xmlns="http://www.w3.org/2000/svg" viewBox="0 0 1600 1000" width="1600" height="1000">
<!-- art:default generated by tools/art-default -->
<defs><linearGradient id="sky" x1="0" y1="0" x2="0" y2="1"><stop offset="0" stop-color="#8fd3f4"/><stop offset="1" stop-color="#e6f7ff"/></linearGradient></defs>
<rect x="0" y="0" width="1600" height="1000" fill="url(#sky)"/><circle cx="1350" cy="180" r="110" fill="#ffd84a" stroke="#2b2118" stroke-width="5" stroke-linejoin="round" stroke-linecap="round"/><line x1="1350" y1="180" x2="1520" y2="180" stroke="#ffd84a" stroke-width="10" stroke-linecap="round"/><line x1="1350" y1="180" x2="1470.2" y2="300.2" stroke="#ffd84a" stroke-width="10" stroke-linecap="round"/><line x1="1350" y1="180" x2="1350" y2="350" stroke="#ffd84a" stroke-width="10" stroke-linecap="round"/><line x1="1350" y1="180" x2="1229.8" y2="300.2" stroke="#ffd84a" stroke-width="10" stroke-linecap="round"/><line x1="1350" y1="180" x2="1180" y2="180" stroke="#ffd84a" stroke-width="10" stroke-linecap="round"/><line x1="1350" y1="180" x2="1229.8" y2="59.8" stroke="#ffd84a" stroke-width="10" stroke-linecap="round"/><line x1="1350" y1="180" x2="1350" y2="10" stroke="#ffd84a" stroke-width="10" stroke-linecap="round"/><line x1="1350" y1="180" x2="1470.2" y2="59.8" stroke="#ffd84a" stroke-width="10" stroke-linecap="round"/><g transform="translate(350 170) scale(1.3)"><ellipse cx="0" cy="0" rx="60" ry="26" fill="#ffffff" stroke="#2b2118" stroke-width="3" stroke-linejoin="round" stroke-linecap="round"/><ellipse cx="-34" cy="8" rx="36" ry="20" fill="#ffffff" stroke="#2b2118" stroke-width="3" stroke-linejoin="round" stroke-linecap="round"/><ellipse cx="36" cy="8" rx="40" ry="22" fill="#ffffff" stroke="#2b2118" stroke-width="3" stroke-linejoin="round" stroke-linecap="round"/><ellipse cx="0" cy="12" rx="70" ry="16" fill="#ffffff"/></g><g transform="translate(820 110) scale(0.9)"><ellipse cx="0" cy="0" rx="60" ry="26" fill="#ffffff" stroke="#2b2118" stroke-width="3" stroke-linejoin="round" stroke-linecap="round"/><ellipse cx="-34" cy="8" rx="36" ry="20" fill="#ffffff" stroke="#2b2118" stroke-width="3" stroke-linejoin="round" stroke-linecap="round"/><ellipse cx="36" cy="8" rx="40" ry="22" fill="#ffffff" stroke="#2b2118" stroke-width="3" stroke-linejoin="round" stroke-linecap="round"/><ellipse cx="0" cy="12" rx="70" ry="16" fill="#ffffff"/></g><path d="M0 640 Q400 560 800 620 T1600 600 V1000 H0 Z" fill="#8cc56c" stroke="#2b2118" stroke-width="5" stroke-linejoin="round" stroke-linecap="round"/><rect x="140.2" y="560" width="39.6" height="121" fill="#8b5a2b" stroke="#2b2118" stroke-width="3" stroke-linejoin="round" stroke-linecap="round"/><circle cx="160" cy="538" r="110" fill="#5a9e45" stroke="#2b2118" stroke-width="4" stroke-linejoin="round" stroke-linecap="round"/><circle cx="121.5" cy="510.5" r="38.5" fill="#83b674"/><rect x="1433.8" y="560" width="32.4" height="99" fill="#8b5a2b" stroke="#2b2118" stroke-width="3" stroke-linejoin="round" stroke-linecap="round"/><circle cx="1450" cy="542" r="90" fill="#4f9140" stroke="#2b2118" stroke-width="4" stroke-linejoin="round" stroke-linecap="round"/><circle cx="1418.5" cy="519.5" r="31.5" fill="#7bad70"/><g transform="translate(260 800)"><polygon points="0,0 360,0 420,110 -60,110" fill="#e0625a" stroke="#2b2118" stroke-width="4" stroke-linejoin="round" stroke-linecap="round"/><path d="M40 0 L-10 110 M120 0 L90 110 M200 0 L190 110 M280 0 L290 110" fill="none" stroke="#fff4d6" stroke-width="18"/></g><circle cx="420" cy="820" r="30" fill="#f2c14e" stroke="#2b2118" stroke-width="3" stroke-linejoin="round" stroke-linecap="round"/><rect x="520" y="790" width="60" height="50" fill="#9ccf8a" rx="8" stroke="#2b2118" stroke-width="3" stroke-linejoin="round" stroke-linecap="round"/><ellipse cx="1120" cy="300" rx="40" ry="50" fill="#e04848" stroke="#2b2118" stroke-width="4" stroke-linejoin="round" stroke-linecap="round"/><path d="M1120 350 q-20 80 10 160" fill="none" stroke="#2b2118" stroke-width="2.5" stroke-linejoin="round" stroke-linecap="round"/><ellipse cx="1200" cy="260" rx="40" ry="50" fill="#4a90d9" stroke="#2b2118" stroke-width="4" stroke-linejoin="round" stroke-linecap="round"/><path d="M1200 310 q-20 80 10 160" fill="none" stroke="#2b2118" stroke-width="2.5" stroke-linejoin="round" stroke-linecap="round"/><ellipse cx="1270" cy="320" rx="40" ry="50" fill="#f2c14e" stroke="#2b2118" stroke-width="4" stroke-linejoin="round" stroke-linecap="round"/><path d="M1270 370 q-20 80 10 160" fill="none" stroke="#2b2118" stroke-width="2.5" stroke-linejoin="round" stroke-linecap="round"/>
</svg>